<svg width="208" height="30" viewBox="0 0 208 30" fill="none" xmlns="http://www.w3.org/2000/svg">
<g id="Logo">
<g id="logo">
<path id="Vector" d="M11.4062 10.8894H8.62061V19.1105H11.4062V10.8894Z" fill="#E85954"/>
<path id="Vector_2" d="M25.1323 10.8894H22.3467V19.1105H25.1323V10.8894Z" fill="#E85954"/>
<path id="Vector_3" d="M11.3992 9.48653V2.5H8.61358V6.68771H4.46301V9.48653H11.3992Z" fill="#E85954"/>
<path id="Vector_4" d="M25.1323 6.68771V2.5H22.3467V9.48653H29.2829V6.68771H25.1323Z" fill="#E85954"/>
<path id="Vector_5" d="M20.9538 6.68768H12.792V9.49352H20.9538V6.68768Z" fill="#E85954"/>
<path id="Vector_6" d="M4.46301 20.5135V23.3193H8.61358V27.5H11.3992V20.5135H4.46301Z" fill="#E85954"/>
<path id="Vector_7" d="M22.3467 20.5135V27.5H25.1323V23.3193H29.2829V20.5135H22.3467Z" fill="#E85954"/>
<path id="Vector_8" d="M20.9538 20.5135H12.792V23.3193H20.9538V20.5135Z" fill="#E85954"/>
<path id="Vector_9" d="M134.356 13.4568C131.863 12.8325 129.711 12.3064 129.711 10.188C129.711 8.4133 131.341 7.22082 133.757 7.22082C136.174 7.22082 137.831 8.62374 137.936 10.665V10.8263H140.366V10.658C140.366 7.24888 137.706 4.90601 133.834 4.90601C130.094 4.90601 127.378 7.12963 127.378 10.188C127.378 14.0741 130.693 14.9158 133.646 15.6594C136.202 16.3117 138.618 16.929 138.618 19.4122C138.618 21.3622 136.745 22.7722 134.161 22.7722C131.376 22.7722 129.461 21.0746 129.461 18.6406V18.4792H127.114V18.6336C127.114 22.3373 130.073 25.0519 134.161 25.0519C138.124 25.0519 140.986 22.681 140.986 19.4402C140.958 15.0772 137.476 14.2214 134.356 13.4568Z" fill="#282827"/>
<path id="Vector_10" d="M146.369 7.36111H144.043V11.0648H141.418V13.2604H144.043V20.1417C144.043 23.2281 145.673 24.9327 148.633 24.9327C149.077 24.926 149.52 24.8767 149.956 24.7854H150.081V22.5267L149.872 22.5898C149.584 22.667 149.286 22.7024 148.988 22.695C147.198 22.695 146.369 21.8673 146.369 20.0786V13.2534H150.081V11.0508H146.369V7.36111Z" fill="#282827"/>
<path id="Vector_11" d="M162.192 18.7037C162.192 21.1939 160.618 22.8072 158.229 22.8072C155.84 22.8072 154.378 21.2219 154.378 18.7037V11.0508H152.052V18.9282C152.052 22.6319 154.322 25.0379 157.825 25.0379C158.698 25.0678 159.563 24.8634 160.332 24.4455C161.1 24.0276 161.745 23.4114 162.199 22.6599V24.7643H164.525V11.0508H162.199L162.192 18.7037Z" fill="#282827"/>
<path id="Vector_12" d="M179.01 13.6252C178.477 12.7111 177.706 11.9616 176.781 11.4583C175.855 10.9549 174.81 10.7169 173.759 10.7702C172.849 10.7809 171.95 10.9745 171.115 11.3396C170.28 11.7047 169.526 12.234 168.897 12.8965C168.268 13.5589 167.776 14.3412 167.451 15.1975C167.126 16.0537 166.974 16.9668 167.004 17.883C166.98 18.7999 167.135 19.7125 167.462 20.5687C167.789 21.4248 168.28 22.2076 168.907 22.8723C169.535 23.5369 170.286 24.0703 171.119 24.4419C171.951 24.8135 172.849 25.0161 173.759 25.0379C174.81 25.0791 175.853 24.8336 176.777 24.3274C177.701 23.8212 178.473 23.073 179.01 22.1619V24.7643H181.35V5.15854H179.024L179.01 13.6252ZM179.01 17.883C179.051 19.1422 178.595 20.3664 177.741 21.287C176.887 22.2076 175.705 22.7493 174.455 22.7932C174.351 22.8002 174.246 22.8002 174.142 22.7932C172.849 22.7932 171.609 22.2759 170.695 21.3551C169.781 20.4342 169.267 19.1853 169.267 17.883C169.267 16.5807 169.781 15.3318 170.695 14.411C171.609 13.4901 172.849 12.9728 174.142 12.9728C174.763 12.9522 175.381 13.0552 175.962 13.2758C176.544 13.4964 177.076 13.8303 177.529 14.2584C177.981 14.6865 178.346 15.2003 178.601 15.7706C178.857 16.3408 178.998 16.9561 179.017 17.5814C179.022 17.682 179.019 17.7828 179.01 17.883Z" fill="#282827"/>
<path id="Vector_13" d="M185.793 5.20764C185.368 5.20764 184.961 5.37762 184.66 5.68018C184.36 5.98275 184.191 6.39311 184.191 6.821C184.191 7.24889 184.36 7.65925 184.66 7.96181C184.961 8.26438 185.368 8.43435 185.793 8.43435C186.218 8.42894 186.625 8.2567 186.927 7.95419C187.228 7.65167 187.401 7.24267 187.408 6.81398C187.394 6.38887 187.219 5.9854 186.918 5.68659C186.618 5.38778 186.215 5.21638 185.793 5.20764Z" fill="#282827"/>
<path id="Vector_14" d="M186.942 11.0508H184.616V24.7643H186.942V11.0508Z" fill="#282827"/>
<path id="Vector_15" d="M196.483 10.7702C195.563 10.7619 194.65 10.9372 193.798 11.2859C192.946 11.6347 192.171 12.1501 191.518 12.8023C190.864 13.4545 190.346 14.2306 189.992 15.0858C189.638 15.941 189.456 16.8583 189.456 17.7848V17.9321C189.464 19.3275 189.881 20.6893 190.654 21.8471C191.428 23.005 192.523 23.9073 193.803 24.4411C195.083 24.975 196.491 25.1166 197.85 24.8483C199.21 24.58 200.46 23.9137 201.446 22.9328C202.431 21.952 203.107 20.7001 203.389 19.334C203.672 17.9678 203.547 16.5482 203.033 15.2528C202.518 13.9574 201.635 12.8438 200.494 12.0514C199.354 11.259 198.007 10.8231 196.622 10.7983L196.483 10.7702ZM201.204 17.9321C201.204 19.199 200.705 20.4141 199.815 21.3099C198.926 22.2058 197.719 22.709 196.462 22.709C195.204 22.709 193.998 22.2058 193.108 21.3099C192.219 20.4141 191.719 19.199 191.719 17.9321C191.719 16.6652 192.219 15.4502 193.108 14.5543C193.998 13.6585 195.204 13.1552 196.462 13.1552C197.719 13.1552 198.926 13.6585 199.815 14.5543C200.705 15.4502 201.204 16.6652 201.204 17.9321Z" fill="#282827"/>
<path id="Vector_16" d="M46.3308 25.2343C44.9934 25.2624 43.6642 25.0165 42.4239 24.5115C41.1836 24.0064 40.0582 23.2529 39.1158 22.2964C38.1735 21.34 37.4338 20.2007 36.9419 18.9477C36.4499 17.6946 36.2158 16.3539 36.2539 15.007C36.1957 12.3095 37.2038 9.6991 39.0563 7.7502C40.9089 5.8013 43.4542 4.67349 46.1324 4.61489C48.8105 4.55629 51.402 5.57169 53.3369 7.43771C55.2717 9.30374 56.3914 11.8675 56.4496 14.5651C56.4496 14.7124 56.4496 14.8597 56.4496 15.007C56.4838 16.3196 56.2603 17.626 55.7918 18.8513C55.3233 20.0765 54.6191 21.1965 53.7196 22.1469C52.8201 23.0972 51.7431 23.8592 50.5504 24.389C49.3577 24.9188 48.0728 25.2061 46.7696 25.2343C46.6256 25.2436 46.4794 25.2436 46.3308 25.2343ZM46.3308 8.11166C42.626 8.11166 39.8403 11.0718 39.8403 14.986C39.8403 18.9001 42.626 21.8603 46.3308 21.8603C50.0357 21.8603 52.8283 18.9141 52.8283 14.986C52.8283 11.0578 50.0079 8.11166 46.3308 8.11166Z" fill="#282827"/>
<path id="Vector_17" d="M76.2553 24.9397H72.7733V16.2977H62.7033V24.9397H59.2491V5.07437H62.7033V13.0009H72.7733V5.07437H76.2553V24.9397Z" fill="#282827"/>
<path id="Vector_18" d="M89.1597 25.2343C87.8236 25.2585 86.4965 25.0098 85.2584 24.5033C84.0203 23.9968 82.8969 23.2429 81.9559 22.2872C81.0149 21.3315 80.2758 20.1938 79.7832 18.9426C79.2906 17.6913 79.0547 16.3526 79.0897 15.007C79.0297 12.3095 80.036 9.69838 81.8873 7.74817C83.7385 5.79795 86.2831 4.66837 88.9612 4.6079C91.6393 4.54744 94.2316 5.56106 96.1678 7.42577C98.1039 9.29047 99.2254 11.8535 99.2854 14.5511C99.2854 14.6984 99.2854 14.8527 99.2854 15.007C99.3188 16.317 99.0955 17.6208 98.6284 18.8439C98.1613 20.067 97.4595 21.1853 96.5632 22.1351C95.6668 23.0849 94.5934 23.8475 93.4044 24.3792C92.2153 24.911 90.9339 25.2016 89.6333 25.2343C89.4592 25.2413 89.3059 25.2413 89.1597 25.2343ZM89.1597 8.13274C85.4827 8.13274 82.6623 11.0929 82.6623 15.007C82.6623 18.9212 85.4479 21.8813 89.1597 21.8813C92.8715 21.8813 95.6502 18.9352 95.6502 15.007C95.6502 11.0789 92.8576 8.11169 89.1597 8.11169V8.13274Z" fill="#282827"/>
<path id="Vector_19" d="M111.869 25.2343C110.534 25.2585 109.207 25.0098 107.969 24.5032C106.731 23.9966 105.608 23.2427 104.668 22.2869C103.728 21.3311 102.989 20.1932 102.497 18.942C102.005 17.6908 101.77 16.3522 101.806 15.007C101.783 12.3373 102.804 9.76575 104.649 7.84867C106.494 5.93159 109.014 4.82317 111.664 4.76324C114.314 4.70331 116.88 5.69669 118.809 7.52844C120.737 9.3602 121.872 11.883 121.967 14.5511C121.967 14.6984 121.967 14.8527 121.967 15.007C122.035 17.6516 121.056 20.2147 119.248 22.1327C117.439 24.0507 114.948 25.1663 112.322 25.2343C112.169 25.2413 112.016 25.2413 111.869 25.2343ZM111.869 8.13273C108.165 8.13273 105.372 11.0929 105.372 15.007C105.372 18.9212 108.158 21.8813 111.869 21.8813C115.581 21.8813 118.367 18.9352 118.367 15.007C118.367 11.0789 115.574 8.11169 111.869 8.11169V8.13273Z" fill="#282827"/>
</g>
</g>
</svg>
